<?xml version="1.0" encoding="UTF-8" standalone="no"?>
<!DOCTYPE svg PUBLIC "-//W3C//DTD SVG 1.1//EN" "http://www.w3.org/Graphics/SVG/1.1/DTD/svg11.dtd">
<svg width="100%" height="100%" viewBox="0 0 404 404" version="1.1" xmlns="http://www.w3.org/2000/svg" xmlns:xlink="http://www.w3.org/1999/xlink" xml:space="preserve" xmlns:serif="http://www.serif.com/" style="fill-rule:evenodd;clip-rule:evenodd;stroke-linejoin:round;stroke-miterlimit:1.41421;">
    <g transform="matrix(0.999934,0,0,0.999727,-11.9096,-208.737)">
        <path d="M318.203,329.008L274.538,329.008C274.226,310.375 265.491,293.777 251.978,282.861L223.098,311.629C218.025,316.682 209.822,316.682 204.749,311.629L175.869,282.861C162.108,293.978 153.301,310.989 153.301,330.04C153.301,363.499 180.465,390.663 213.924,390.663L213.924,390.665L225.479,391.478C230.529,392.04 235.379,392.793 240.291,394.093L257.723,380.664L261.558,402.332C266.064,404.681 270.39,407.359 274.5,410.346L295.607,404.121L291.355,425.711C294.709,429.529 297.775,433.589 300.529,437.859L322.459,439.678L310.695,458.275C312.443,463.046 313.835,467.94 314.861,472.917L334.653,482.535L316.965,495.627C316.872,500.707 316.402,505.773 315.561,510.784L330.541,526.903L309.319,532.721C307.397,537.425 305.129,541.979 302.534,546.348L310.68,566.79L288.789,564.549C285.298,568.24 281.538,571.667 277.54,574.804L277.752,596.808L258.149,586.811C253.559,588.991 248.815,590.829 243.954,592.31L236.203,612.904L221.535,596.5C216.468,596.876 211.38,596.876 206.313,596.5L191.645,612.904L183.893,592.31C179.033,590.829 174.288,588.991 169.699,586.811L150.096,596.808L150.308,574.804C146.31,571.667 142.55,568.24 139.058,564.549L117.167,566.79L125.313,546.348C122.719,541.979 120.451,537.425 118.528,532.721L97.306,526.903L112.287,510.784C111.445,505.773 110.976,500.707 110.882,495.627L110.918,492.69L153.31,492.69C153.304,493.034 153.301,493.378 153.301,493.723C153.301,511.98 161.389,528.364 174.175,539.482L204.728,509.048C209.813,503.983 218.035,503.983 223.119,509.048L253.672,539.482C266.458,528.364 274.547,511.98 274.547,493.723C274.547,460.264 247.383,433.1 213.924,433.099C211.384,433.099 208.846,433.006 206.313,432.818L191.645,449.222L183.893,428.627C179.033,427.147 174.288,425.309 169.699,423.128L150.096,433.126L150.308,411.122C146.31,407.985 142.55,404.557 139.058,400.866L117.167,403.107L125.313,382.665C122.719,378.297 120.451,373.742 118.528,369.039L97.306,363.221L112.287,347.102C111.445,342.091 110.976,337.025 110.882,331.945L93.195,318.853L112.987,309.234C114.012,304.258 115.405,299.364 117.152,294.593L105.389,275.996L127.319,274.177C130.073,269.907 133.139,265.846 136.492,262.029L132.241,240.438L153.347,246.664C157.458,243.677 161.784,240.998 166.289,238.65L170.125,216.981L187.557,230.411C192.469,229.111 197.47,228.176 202.52,227.614L213.924,208.794L225.328,227.614C230.377,228.176 235.379,229.111 240.291,230.411L257.723,216.981L261.558,238.65C266.064,240.998 270.39,243.677 274.5,246.664L295.607,240.438L291.355,262.029C294.709,265.846 297.775,269.907 300.529,274.177L322.459,275.996L310.695,294.593C312.443,299.364 313.835,304.258 314.861,309.234L318.203,329.008ZM213.924,562.544C205.477,562.544 198.619,555.686 198.619,547.239C198.619,538.792 205.477,531.934 213.924,531.934C222.371,531.934 229.229,538.792 229.229,547.239C229.229,555.686 222.371,562.544 213.924,562.544ZM213.924,258.112C222.371,258.112 229.229,264.97 229.229,273.417C229.229,281.864 222.371,288.722 213.924,288.722C205.477,288.722 198.619,281.864 198.619,273.417C198.619,264.97 205.477,258.112 213.924,258.112Z"/>
    </g>
</svg>
